<?xml version="1.0" standalone="no"?>
<!DOCTYPE svg PUBLIC "-//W3C//DTD SVG 20010904//EN"
 "http://www.w3.org/TR/2001/REC-SVG-20010904/DTD/svg10.dtd">
<svg version="1.0" xmlns="http://www.w3.org/2000/svg"
 width="421.000000pt" height="421.000000pt" viewBox="0 0 421.000000 421.000000"
 preserveAspectRatio="xMidYMid meet">
<metadata>
Created by potrace 1.11, written by Peter Selinger 2001-2013
</metadata>
<g transform="translate(0.000000,421.000000) scale(0.100000,-0.100000)"
fill="#000000" stroke="none">
<path d="M1747 3764 c-1 -1 -36 -4 -77 -7 -290 -23 -505 -123 -607 -282 -14
-22 -29 -42 -33 -45 -29 -20 -170 -249 -172 -280 0 -3 -2 -9 -4 -15 -1 -5 -5
-35 -7 -65 -6 -62 -13 -98 -27 -135 -5 -14 -8 -71 -5 -128 2 -56 5 -154 5
-217 1 -97 11 -178 32 -270 2 -10 -5 -15 -22 -16 -23 0 -88 -34 -66 -34 5 0 4
-6 -2 -12 -15 -19 -6 -152 17 -256 l21 -93 -25 -23 c-14 -13 -25 -28 -25 -35
0 -6 -4 -11 -8 -11 -9 0 -31 -64 -39 -115 -7 -41 -6 -143 2 -183 28 -143 130
-205 208 -126 26 26 27 26 27 5 0 -12 7 -37 15 -56 13 -32 12 -38 -6 -69 -41
-70 -41 -147 0 -228 16 -32 26 -60 21 -63 -5 -3 -12 -26 -16 -51 -7 -50 15
-116 37 -112 20 5 20 -17 1 -38 -23 -24 -42 -79 -40 -114 1 -14 9 -59 18 -100
24 -107 17 -144 -37 -197 l-45 -43 54 0 c56 0 138 18 177 40 36 19 81 62 81
77 0 7 4 13 9 13 5 0 11 8 14 17 4 10 13 36 21 58 29 75 29 111 2 171 -14 30
-34 68 -46 84 -25 35 -25 47 -2 54 29 10 82 63 88 88 10 40 11 81 3 123 -7 41
0 64 32 98 10 11 16 23 14 27 -3 5 2 10 10 14 8 3 17 0 21 -5 7 -12 125 -68
155 -74 12 -2 28 -6 37 -9 59 -17 207 -23 293 -12 38 5 146 34 194 52 9 4 12
-15 9 -78 -4 -125 31 -275 78 -334 42 -53 115 -115 163 -139 30 -14 55 -31 55
-37 0 -6 16 -55 34 -107 19 -53 40 -121 46 -152 11 -57 38 -110 40 -79 3 35
10 55 19 58 6 2 11 8 11 14 0 6 13 27 30 48 16 21 30 43 30 49 0 6 5 11 10 11
6 0 10 7 10 15 0 8 4 15 10 15 5 0 12 11 16 25 3 14 10 25 15 25 5 0 9 6 9 14
0 19 9 24 77 42 65 17 136 59 177 104 37 42 95 135 108 173 6 18 14 37 18 42
4 6 13 28 20 50 7 22 16 45 21 51 5 6 6 14 2 17 -3 4 -1 7 5 7 7 0 12 9 12 20
0 11 16 37 35 58 48 54 68 111 69 202 1 76 -65 137 -139 128 -29 -3 -35 0 -40
21 -15 60 -80 111 -140 111 -23 0 -26 4 -23 28 4 26 21 65 40 86 18 21 78 118
78 126 0 4 7 13 15 20 8 7 12 16 9 21 -3 5 0 9 5 9 6 0 11 5 11 12 0 6 7 19
15 28 19 21 28 65 21 95 -10 40 -49 72 -99 82 -19 3 -77 -23 -77 -35 0 -4 -10
-19 -23 -34 -12 -15 -30 -39 -40 -53 -25 -35 -39 -31 -22 8 7 17 15 46 18 64
3 17 7 35 10 40 8 13 20 125 18 167 -3 64 -42 119 -72 100 -8 -4 -12 7 -11 26
3 38 13 103 16 109 13 21 16 155 6 226 -7 44 -14 114 -16 155 -2 41 -13 118
-25 170 -12 52 -23 104 -25 115 -2 11 -24 54 -48 95 -25 41 -46 84 -46 95 -1
63 -78 167 -171 230 -24 16 -51 38 -59 49 -37 47 -74 77 -118 98 -26 12 -49
22 -52 23 -3 0 -9 3 -15 6 -5 4 -28 10 -50 14 -22 4 -51 9 -65 12 -14 3 -29 6
-35 7 -5 1 -15 5 -21 8 -18 12 -245 31 -257 22z m-882 -1928 c14 -4 25 -14 25
-24 0 -9 13 -54 29 -98 24 -69 27 -88 20 -125 -19 -92 -42 -134 -85 -157 -17
-9 -25 -7 -46 11 -46 41 -70 163 -54 277 6 44 32 105 55 133 12 15 16 15 23 3
4 -7 19 -17 33 -20z m1875 18 c0 -3 -13 -25 -30 -49 -16 -24 -30 -48 -30 -53
0 -6 -7 -13 -16 -16 -15 -6 -15 -4 -3 10 8 10 13 19 11 21 -10 12 13 71 31 80
26 13 37 15 37 7z"/>
</g>
</svg>
